# xmcd
#
# Track frame offsets:
#	150
#	15437
#	33102
#	56122
#	72120
#	89775
#	106490
#	120885
#	138757
#	153362
#	171130
# Disc length: 2432 seconds
# Revision: 6
# Processed by: cddbd v1.5.1PL2 Copyright (c) Steve Scherf et al.
#
# Submitted via: libkcddb 0.31
#
DISCID=84097e0b
DTITLE=Joanna Connor - Believe It!
DYEAR=1989
DGENRE=Blues
TTITLE0=Texas Flyer
TTITLE1=He's Mine
TTITLE2=Doctor Feelgood
TTITLE3=I'm Satisfied
TTITLE4=When You're Being Nice
TTITLE5=Pack It Up
TTITLE6=Everybody I Know
TTITLE7=Playing In the Dirt
TTITLE8=Soul's On Fire
TTITLE9=Somebody's On Your Case
TTITLE10=Good rockin' Daddy
EXTD=
EXTT0=
EXTT1=
EXTT2=
EXTT3=
EXTT4=
EXTT5=
EXTT6=
EXTT7=
EXTT8=
EXTT9=
EXTT10=
PLAYORDER=
